<svg xmlns="http://www.w3.org/2000/svg" xmlns:xlink="http://www.w3.org/1999/xlink" width="1920" zoomAndPan="magnify" viewBox="0 0 1440 809.999993" height="1080" preserveAspectRatio="xMidYMid meet" version="1.2"><defs><clipPath id="d898ba673b"><path d="M 45.714844 203.164062 L 489.714844 203.164062 L 489.714844 606.664062 L 45.714844 606.664062 Z M 45.714844 203.164062 "/></clipPath></defs><g id="7cf60f6def"><g clip-rule="nonzero" clip-path="url(#d898ba673b)"><path style=" stroke:none;fill-rule:nonzero;fill:#ffffff;fill-opacity:1;" d="M 230.671875 607.097656 L 230.671875 607.078125 L 240.027344 607.078125 L 240.027344 457.347656 C 240.027344 457.347656 238.460938 456.445312 238.460938 456.445312 L 211.886719 441.105469 L 238.460938 425.769531 L 240.027344 424.863281 L 240.027344 423.054688 C 240.027344 423.054688 240.027344 319.9375 240.027344 319.9375 L 421.773438 424.847656 L 421.773438 600.835938 L 365.390625 600.835938 L 365.390625 423.007812 L 359.121094 423.007812 L 359.121094 600.835938 L 313.699219 600.835938 L 313.699219 607.101562 L 456.246094 607.101562 L 456.246094 600.835938 L 428.039062 600.835938 L 428.039062 428.460938 L 486.050781 461.945312 L 489.183594 456.519531 L 428.039062 421.222656 L 428.039062 356.066406 L 459.625 374.308594 L 462.757812 368.878906 L 428.039062 348.832031 L 428.039062 309.621094 L 421.773438 309.621094 L 421.773438 345.214844 L 175.773438 203.164062 L 172.640625 208.589844 L 230.632812 242.074219 L 208.582031 254.769531 L 208.582031 254.699219 L 203.886719 257.414062 L 78.59375 329.746094 L 77.027344 330.648438 L 77.027344 330.710938 L 47.285156 347.878906 L 45.71875 348.78125 L 45.71875 607.085938 L 79.640625 607.085938 L 79.640625 607.101562 L 230.675781 607.101562 Z M 142.867188 480.945312 L 171.074219 497.191406 L 171.074219 538.148438 L 114.660156 538.148438 L 114.660156 497.191406 Z M 142.867188 401.253906 C 142.867188 401.253906 141.300781 402.15625 141.300781 402.15625 L 114.660156 417.550781 L 114.660156 388.558594 L 171.074219 356.011719 L 171.074219 356.085938 C 171.074219 356.085938 171.074219 385 171.074219 385 L 142.867188 401.246094 Z M 421.757812 417.601562 L 240.078125 312.722656 L 240.023438 247.496094 L 421.757812 352.4375 Z M 421.757812 417.601562 "/></g><path style=" stroke:none;fill-rule:nonzero;fill:#ffffff;fill-opacity:1;" d="M 572.328125 285.207031 C 575.179688 284.886719 578.671875 284.605469 582.796875 284.363281 C 586.921875 284.125 591.71875 284.003906 597.1875 284.003906 C 608.0625 284.003906 616.472656 286.109375 622.421875 290.316406 C 628.691406 294.683594 631.828125 300.714844 631.828125 308.410156 C 631.828125 308.878906 631.804688 309.355469 631.765625 309.832031 C 631.722656 310.3125 631.679688 310.792969 631.640625 311.269531 C 631.597656 311.738281 631.535156 312.214844 631.453125 312.691406 C 631.378906 313.171875 631.28125 313.628906 631.15625 314.066406 C 631.039062 314.496094 630.921875 314.925781 630.796875 315.363281 C 630.679688 315.800781 630.546875 316.238281 630.390625 316.675781 C 630.234375 317.113281 630.054688 317.53125 629.859375 317.925781 C 629.660156 318.324219 629.460938 318.71875 629.265625 319.113281 C 629.066406 319.511719 628.828125 319.90625 628.546875 320.300781 C 628.265625 320.699219 628.007812 321.058594 627.78125 321.378906 C 626.269531 323.359375 624.320312 325.183594 621.9375 326.847656 C 625.113281 328.597656 627.695312 330.660156 629.6875 333.035156 C 632.9375 336.921875 634.5625 341.722656 634.5625 347.441406 C 634.5625 356.003906 631.226562 362.828125 624.5625 367.910156 C 618.0625 372.742188 608.78125 375.160156 596.71875 375.160156 C 591.800781 375.160156 587.160156 375.039062 582.796875 374.800781 C 578.347656 374.644531 574.816406 374.367188 572.203125 373.972656 L 569.703125 373.503906 L 569.703125 285.550781 Z M 597.546875 359.816406 C 598.898438 359.816406 600.191406 359.78125 601.421875 359.707031 C 602.648438 359.625 603.796875 359.484375 604.859375 359.285156 C 605.929688 359.089844 606.925781 358.847656 607.84375 358.566406 C 608.757812 358.285156 609.613281 357.96875 610.40625 357.613281 C 611.195312 357.261719 611.910156 356.886719 612.546875 356.488281 C 614.128906 355.457031 615.273438 354.269531 615.984375 352.925781 C 616.703125 351.574219 617.0625 349.902344 617.0625 347.910156 C 617.0625 344.183594 615.554688 341.285156 612.546875 339.222656 C 609.128906 336.847656 604.128906 335.660156 597.546875 335.660156 L 586.953125 335.660156 L 586.953125 359.332031 C 590.285156 359.65625 593.816406 359.816406 597.546875 359.816406 Z M 597.078125 320.894531 C 602.703125 320.894531 607.101562 319.785156 610.28125 317.566406 C 613.132812 315.589844 614.5625 313.011719 614.5625 309.832031 C 614.5625 306.425781 613.210938 303.847656 610.515625 302.097656 C 607.347656 300.121094 602.867188 299.128906 597.078125 299.128906 C 596.441406 299.128906 595.804688 299.128906 595.171875 299.128906 C 594.535156 299.128906 593.9375 299.152344 593.375 299.191406 C 592.820312 299.222656 592.269531 299.238281 591.71875 299.238281 C 591.164062 299.238281 590.609375 299.238281 590.046875 299.238281 C 589.734375 299.324219 589.394531 299.363281 589.03125 299.363281 C 588.675781 299.363281 588.320312 299.386719 587.96875 299.425781 C 587.613281 299.46875 587.273438 299.488281 586.953125 299.488281 L 586.953125 320.894531 Z M 597.078125 320.894531 "/><path style=" stroke:none;fill-rule:nonzero;fill:#ffffff;fill-opacity:1;" d="M 705.121094 373.863281 L 694.761719 351.253906 C 692.457031 346.171875 689.5625 342.597656 686.074219 340.535156 C 685.042969 339.902344 683.890625 339.363281 682.621094 338.925781 C 681.347656 338.488281 679.957031 338.15625 678.449219 337.925781 C 676.949219 337.6875 675.324219 337.527344 673.574219 337.441406 L 673.574219 374.207031 L 656.324219 374.207031 L 656.324219 285.441406 L 659.058594 285.207031 C 661.203125 285.042969 663.285156 284.878906 665.308594 284.722656 C 667.328125 284.566406 669.292969 284.449219 671.199219 284.363281 C 675.011719 284.125 679.175781 284.003906 683.699219 284.003906 C 689.011719 284.003906 693.730469 284.5625 697.855469 285.675781 C 702.0625 286.863281 705.550781 288.574219 708.324219 290.800781 C 711.261719 293.09375 713.480469 295.785156 714.980469 298.878906 C 716.488281 301.972656 717.246094 305.386719 717.246094 309.113281 C 717.246094 315.707031 715.222656 321.066406 711.183594 325.191406 C 708.640625 327.808594 705.347656 329.984375 701.308594 331.722656 C 701.941406 332.203125 702.515625 332.683594 703.027344 333.160156 C 703.546875 333.640625 704.046875 334.199219 704.527344 334.832031 C 705.234375 335.542969 705.90625 336.3125 706.542969 337.144531 C 707.175781 337.980469 707.8125 338.910156 708.449219 339.941406 C 709.636719 341.847656 710.863281 344.1875 712.136719 346.957031 L 721.183594 366.363281 L 722.371094 369.097656 L 719.746094 370.410156 L 709.167969 375.410156 L 706.417969 376.597656 Z M 683.699219 299.488281 C 682.34375 299.488281 681.074219 299.488281 679.886719 299.488281 C 678.699219 299.488281 677.589844 299.527344 676.558594 299.597656 C 676.234375 299.597656 675.875 299.621094 675.480469 299.660156 C 675.082031 299.703125 674.722656 299.722656 674.402344 299.722656 C 674.089844 299.722656 673.8125 299.722656 673.574219 299.722656 L 673.574219 321.972656 L 683.699219 321.972656 C 688.769531 321.972656 692.855469 320.902344 695.949219 318.753906 C 698.644531 316.777344 699.996094 313.921875 699.996094 310.191406 C 699.996094 308.683594 699.699219 307.3125 699.105469 306.082031 C 698.511719 304.855469 697.535156 303.722656 696.183594 302.691406 C 694.839844 301.660156 693.136719 300.871094 691.074219 300.316406 C 689.011719 299.765625 686.550781 299.488281 683.699219 299.488281 Z M 683.699219 299.488281 "/><path style=" stroke:none;fill-rule:nonzero;fill:#ffffff;fill-opacity:1;" d="M 732.242188 367.191406 L 764.851562 286.863281 L 765.554688 284.957031 L 781.976562 284.957031 L 782.695312 286.863281 L 814.820312 367.191406 L 815.898438 369.925781 L 813.164062 371.003906 L 802.804688 375.160156 L 800.070312 376.347656 L 799.007812 373.503906 L 790.429688 351.597656 L 755.929688 351.597656 L 747.351562 373.253906 L 746.289062 376.113281 L 743.554688 374.925781 L 733.914062 371.003906 L 731.054688 369.925781 Z M 761.867188 336.128906 L 784.367188 336.128906 L 773.179688 307.332031 Z M 761.867188 336.128906 "/><path style=" stroke:none;fill-rule:nonzero;fill:#ffffff;fill-opacity:1;" d="M 836.117188 352.441406 C 837.460938 353.546875 838.867188 354.535156 840.335938 355.410156 C 841.804688 356.285156 843.371094 357.078125 845.039062 357.785156 C 848.214844 359.140625 851.984375 359.816406 856.351562 359.816406 C 858.964844 359.816406 861.242188 359.5625 863.179688 359.050781 C 865.125 358.53125 866.777344 357.792969 868.132812 356.832031 C 870.664062 355.011719 871.929688 352.59375 871.929688 349.582031 C 871.929688 349.34375 871.929688 349.089844 871.929688 348.816406 C 871.929688 348.535156 871.90625 348.277344 871.867188 348.035156 C 871.835938 347.796875 871.796875 347.542969 871.757812 347.269531 C 871.714844 346.988281 871.652344 346.75 871.570312 346.550781 C 871.496094 346.355469 871.417969 346.136719 871.335938 345.894531 C 871.023438 344.9375 870.351562 343.984375 869.320312 343.035156 C 868.132812 341.921875 866.421875 340.769531 864.195312 339.582031 C 861.734375 338.3125 858.605469 336.925781 854.804688 335.425781 C 850.355469 333.761719 846.625 332.050781 843.617188 330.300781 C 840.355469 328.5625 837.695312 326.621094 835.632812 324.472656 C 834.921875 323.683594 834.289062 322.890625 833.726562 322.097656 C 833.171875 321.296875 832.65625 320.464844 832.179688 319.597656 C 831.710938 318.722656 831.3125 317.847656 830.992188 316.972656 C 830.125 314.277344 829.695312 311.261719 829.695312 307.925781 C 829.695312 304.519531 830.40625 301.3125 831.835938 298.300781 C 833.261719 295.28125 835.359375 292.660156 838.132812 290.441406 C 840.828125 288.296875 844.125 286.589844 848.023438 285.316406 C 851.824219 284.128906 856.148438 283.535156 860.992188 283.535156 C 866.148438 283.535156 870.789062 284.050781 874.914062 285.082031 C 879.039062 286.113281 883.085938 287.582031 887.054688 289.488281 L 889.539062 290.800781 L 888.476562 293.410156 L 884.304688 303.050781 L 883.007812 306.144531 L 880.023438 304.472656 C 879.230469 303.921875 878.375 303.449219 877.460938 303.050781 C 876.554688 302.65625 875.585938 302.261719 874.554688 301.863281 C 873.523438 301.46875 872.414062 301.074219 871.226562 300.675781 C 867.890625 299.71875 864.398438 299.238281 860.742188 299.238281 C 858.367188 299.238281 856.28125 299.457031 854.492188 299.894531 C 852.710938 300.332031 851.226562 300.949219 850.039062 301.738281 C 849.246094 302.300781 848.609375 302.859375 848.132812 303.410156 C 847.652344 303.964844 847.3125 304.558594 847.117188 305.191406 C 846.917969 305.828125 846.820312 306.542969 846.820312 307.332031 C 846.820312 308.605469 846.980469 309.675781 847.304688 310.550781 C 847.542969 311.34375 848.136719 312.136719 849.085938 312.925781 C 849.636719 313.40625 850.308594 313.90625 851.101562 314.425781 C 851.902344 314.9375 852.855469 315.46875 853.960938 316.019531 C 854.523438 316.261719 855.117188 316.542969 855.742188 316.863281 C 856.375 317.175781 857.070312 317.496094 857.820312 317.816406 C 858.578125 318.128906 859.398438 318.449219 860.273438 318.769531 C 861.148438 319.082031 862.058594 319.4375 863.007812 319.832031 C 867.765625 321.574219 871.773438 323.394531 875.023438 325.300781 C 875.742188 325.699219 876.417969 326.09375 877.054688 326.488281 C 877.6875 326.886719 878.28125 327.300781 878.835938 327.738281 C 879.386719 328.175781 879.9375 328.613281 880.492188 329.050781 C 881.054688 329.488281 881.570312 329.925781 882.039062 330.363281 C 882.515625 330.800781 882.953125 331.253906 883.351562 331.722656 C 885.578125 334.109375 887.167969 336.691406 888.117188 339.472656 C 889.0625 342.160156 889.539062 345.09375 889.539062 348.269531 C 889.539062 352.636719 888.667969 356.519531 886.929688 359.925781 C 885.261719 363.34375 882.921875 366.238281 879.914062 368.613281 C 876.976562 371 873.445312 372.785156 869.320312 373.972656 C 865.351562 375.085938 861.027344 375.644531 856.351562 375.644531 C 850.234375 375.644531 844.640625 374.808594 839.570312 373.144531 C 834.484375 371.476562 830.199219 369.296875 826.710938 366.597656 L 824.570312 364.925781 L 826.007812 362.675781 L 831.710938 353.144531 L 833.492188 350.175781 Z M 836.117188 352.441406 "/><path style=" stroke:none;fill-rule:nonzero;fill:#ffffff;fill-opacity:1;" d="M 911.785156 284.957031 L 929.035156 284.957031 L 929.035156 374.207031 L 911.785156 374.207031 Z M 911.785156 284.957031 "/><path style=" stroke:none;fill-rule:nonzero;fill:#ffffff;fill-opacity:1;" d="M 1008.652344 374.207031 L 956.167969 374.207031 L 956.167969 284.957031 L 973.417969 284.957031 L 973.417969 358.144531 L 1011.621094 358.144531 L 1011.621094 374.207031 Z M 1008.652344 374.207031 "/><path style=" stroke:none;fill-rule:nonzero;fill:#ffffff;fill-opacity:1;" d="M 572.671875 427.769531 L 583.984375 427.769531 L 583.984375 511.066406 L 572.671875 511.066406 Z M 572.671875 427.769531 "/><path style=" stroke:none;fill-rule:nonzero;fill:#ffffff;fill-opacity:1;" d="M 683.585938 442.160156 L 661.335938 492.269531 L 650.148438 492.269531 L 627.773438 442.160156 L 627.773438 511.066406 L 617.054688 511.066406 L 617.054688 427.769531 L 632.882812 427.769531 L 655.976562 480.488281 L 678.710938 427.769531 L 694.882812 427.769531 L 694.882812 511.066406 L 683.585938 511.066406 Z M 683.585938 442.160156 "/><path style=" stroke:none;fill-rule:nonzero;fill:#ffffff;fill-opacity:1;" d="M 727.949219 428.003906 C 731.28125 427.609375 734.871094 427.3125 738.714844 427.113281 C 742.566406 426.917969 746.636719 426.816406 750.917969 426.816406 C 756.074219 426.816406 760.671875 427.453125 764.714844 428.722656 C 768.765625 429.996094 772.175781 431.738281 774.949219 433.957031 C 777.730469 436.175781 779.832031 438.855469 781.261719 441.988281 C 782.6875 445.125 783.402344 448.515625 783.402344 452.160156 C 783.402344 456.609375 782.546875 460.558594 780.839844 464.003906 C 779.140625 467.453125 776.765625 470.371094 773.714844 472.753906 C 770.660156 475.128906 766.988281 476.933594 762.699219 478.160156 C 758.417969 479.390625 753.699219 480.003906 748.542969 480.003906 C 745.207031 480.003906 742.113281 479.886719 739.261719 479.644531 L 739.261719 511.066406 L 727.949219 511.066406 Z M 749.964844 470.613281 C 757.109375 470.613281 762.605469 469.046875 766.449219 465.910156 C 770.300781 462.777344 772.230469 458.511719 772.230469 453.113281 C 772.230469 447.957031 770.378906 443.875 766.683594 440.863281 C 762.996094 437.84375 757.660156 436.332031 750.683594 436.332031 C 748.535156 436.332031 746.511719 436.375 744.605469 436.457031 C 742.707031 436.53125 740.925781 436.652344 739.261719 436.816406 L 739.261719 470.003906 C 740.53125 470.171875 742.058594 470.316406 743.839844 470.441406 C 745.628906 470.558594 747.671875 470.613281 749.964844 470.613281 Z M 749.964844 470.613281 "/><path style=" stroke:none;fill-rule:nonzero;fill:#ffffff;fill-opacity:1;" d="M 808.738281 427.769531 L 858.722656 427.769531 L 858.722656 437.519531 L 820.050781 437.519531 L 820.050781 462.878906 L 853.363281 462.878906 L 853.363281 472.394531 L 820.050781 472.394531 L 820.050781 501.300781 L 858.722656 501.300781 L 858.722656 511.066406 L 808.738281 511.066406 Z M 808.738281 427.769531 "/><path style=" stroke:none;fill-rule:nonzero;fill:#ffffff;fill-opacity:1;" d="M 935 512.488281 L 924.640625 489.878906 C 922.023438 484.253906 918.734375 480.253906 914.765625 477.878906 C 910.796875 475.496094 905.71875 474.300781 899.53125 474.300781 L 897.75 474.300781 L 897.75 511.066406 L 886.4375 511.066406 L 886.4375 428.003906 C 890.726562 427.609375 894.753906 427.3125 898.515625 427.113281 C 902.285156 426.917969 906.394531 426.816406 910.84375 426.816406 C 915.914062 426.816406 920.351562 427.355469 924.15625 428.425781 C 927.96875 429.5 931.144531 431.027344 933.6875 433.003906 C 936.226562 434.984375 938.148438 437.324219 939.453125 440.019531 C 940.765625 442.71875 941.421875 445.691406 941.421875 448.941406 C 941.421875 454.734375 939.691406 459.394531 936.234375 462.925781 C 932.785156 466.457031 927.8125 469.097656 921.3125 470.847656 C 922.894531 471.558594 924.359375 472.371094 925.703125 473.285156 C 927.054688 474.203125 928.328125 475.316406 929.515625 476.628906 C 930.710938 477.933594 931.882812 479.496094 933.03125 481.316406 C 934.1875 483.140625 935.359375 485.359375 936.546875 487.972656 L 945.59375 507.503906 Z M 910.84375 436.332031 C 908.144531 436.332031 905.722656 436.375 903.578125 436.457031 C 901.441406 436.53125 899.5 436.652344 897.75 436.816406 L 897.75 464.769531 L 910.84375 464.769531 C 916.550781 464.769531 921.191406 463.503906 924.765625 460.972656 C 928.335938 458.433594 930.125 454.78125 930.125 450.019531 C 930.125 446.050781 928.457031 442.78125 925.125 440.207031 C 921.789062 437.625 917.03125 436.332031 910.84375 436.332031 Z M 910.84375 436.332031 "/><path style=" stroke:none;fill-rule:nonzero;fill:#ffffff;fill-opacity:1;" d="M 971.511719 427.769531 L 982.824219 427.769531 L 982.824219 511.066406 L 971.511719 511.066406 Z M 971.511719 427.769531 "/><path style=" stroke:none;fill-rule:nonzero;fill:#ffffff;fill-opacity:1;" d="M 1006.378906 508.097656 L 1038.988281 427.769531 L 1051.363281 427.769531 L 1083.488281 508.097656 L 1073.144531 512.253906 L 1063.863281 488.457031 L 1025.300781 488.457031 L 1016.019531 512.019531 Z M 1028.878906 478.941406 L 1060.175781 478.941406 L 1044.582031 438.957031 Z M 1028.878906 478.941406 "/><path style=" stroke:none;fill-rule:nonzero;fill:#ffffff;fill-opacity:1;" d="M 1156.550781 511.066406 L 1107.035156 511.066406 L 1107.035156 427.769531 L 1118.347656 427.769531 L 1118.347656 500.957031 L 1156.550781 500.957031 Z M 1156.550781 511.066406 "/><path style=" stroke:none;fill-rule:nonzero;fill:#ffffff;fill-opacity:1;" d="M 847.25 581.789062 C 847.25 582.332031 847.269531 582.847656 847.3125 583.335938 C 847.351562 583.828125 847.421875 584.300781 847.515625 584.757812 C 847.609375 585.207031 847.722656 585.644531 847.859375 586.070312 C 848.253906 587.332031 848.8125 588.398438 849.53125 589.273438 C 849.769531 589.566406 850.015625 589.84375 850.265625 590.101562 C 850.523438 590.351562 850.800781 590.578125 851.09375 590.773438 C 851.382812 590.972656 851.691406 591.15625 852.015625 591.320312 C 852.972656 591.769531 854.023438 591.992188 855.171875 591.992188 C 856.367188 591.992188 857.394531 591.863281 858.25 591.601562 C 859.15625 591.300781 860.023438 590.898438 860.859375 590.398438 L 861.890625 589.789062 L 862.296875 590.914062 L 863.453125 594.070312 L 863.78125 594.914062 L 863.015625 595.320312 C 861.953125 595.871094 860.753906 596.351562 859.421875 596.757812 C 858.054688 597.132812 856.492188 597.320312 854.734375 597.320312 C 852.765625 597.320312 850.957031 596.953125 849.3125 596.226562 C 847.675781 595.507812 846.257812 594.472656 845.0625 593.117188 C 843.882812 591.785156 842.972656 590.171875 842.328125 588.273438 C 841.691406 586.378906 841.375 584.273438 841.375 581.960938 C 841.375 579.722656 841.691406 577.65625 842.328125 575.757812 C 842.972656 573.84375 843.894531 572.1875 845.09375 570.789062 C 846.320312 569.382812 847.789062 568.296875 849.5 567.523438 C 850.351562 567.148438 851.257812 566.863281 852.21875 566.664062 C 853.175781 566.457031 854.175781 566.351562 855.21875 566.351562 C 856.65625 566.351562 857.945312 566.488281 859.09375 566.757812 C 860.238281 567.019531 861.332031 567.394531 862.375 567.882812 L 863.171875 568.273438 L 862.890625 569.148438 L 861.734375 572.351562 L 861.328125 573.398438 L 860.328125 572.914062 C 859.554688 572.519531 858.769531 572.210938 857.96875 571.992188 C 857.707031 571.921875 857.4375 571.863281 857.15625 571.820312 C 856.875 571.78125 856.566406 571.75 856.234375 571.726562 C 855.898438 571.695312 855.546875 571.679688 855.171875 571.679688 C 854.609375 571.679688 854.0625 571.734375 853.53125 571.835938 C 853 571.941406 852.492188 572.101562 852.015625 572.320312 C 851.535156 572.53125 851.085938 572.796875 850.671875 573.117188 C 850.265625 573.441406 849.882812 573.816406 849.53125 574.242188 C 849.1875 574.671875 848.875 575.144531 848.59375 575.664062 C 848.3125 576.175781 848.066406 576.753906 847.859375 577.398438 C 847.453125 578.679688 847.25 580.144531 847.25 581.789062 Z M 847.25 581.789062 "/><path style=" stroke:none;fill-rule:nonzero;fill:#ffffff;fill-opacity:1;" d="M 869.054688 581.789062 C 869.054688 579.632812 869.371094 577.625 870.007812 575.757812 C 870.652344 573.863281 871.589844 572.222656 872.820312 570.835938 C 874.039062 569.421875 875.527344 568.328125 877.289062 567.554688 C 878.171875 567.160156 879.117188 566.863281 880.117188 566.664062 C 881.117188 566.457031 882.164062 566.351562 883.257812 566.351562 C 884.351562 566.351562 885.398438 566.457031 886.398438 566.664062 C 887.398438 566.863281 888.335938 567.175781 889.210938 567.601562 C 890.09375 568 890.90625 568.476562 891.648438 569.039062 C 892.398438 569.601562 893.078125 570.242188 893.695312 570.960938 C 894.921875 572.347656 895.871094 573.972656 896.539062 575.835938 C 897.171875 577.703125 897.492188 579.691406 897.492188 581.804688 C 897.492188 583.910156 897.171875 585.894531 896.539062 587.757812 C 896.320312 588.375 896.070312 588.972656 895.789062 589.554688 C 895.507812 590.140625 895.195312 590.691406 894.851562 591.210938 C 894.507812 591.734375 894.136719 592.234375 893.742188 592.710938 C 893.125 593.429688 892.4375 594.070312 891.679688 594.632812 C 890.917969 595.195312 890.109375 595.675781 889.257812 596.070312 C 887.496094 596.902344 885.496094 597.320312 883.257812 597.320312 C 881.015625 597.320312 879.015625 596.902344 877.257812 596.070312 C 876.828125 595.859375 876.414062 595.640625 876.007812 595.398438 C 875.609375 595.160156 875.226562 594.898438 874.851562 594.617188 C 874.476562 594.335938 874.117188 594.039062 873.773438 593.726562 C 873.429688 593.40625 873.109375 593.066406 872.820312 592.710938 C 871.589844 591.304688 870.652344 589.65625 870.007812 587.757812 C 869.371094 585.894531 869.054688 583.90625 869.054688 581.789062 Z M 874.929688 581.789062 C 874.929688 582.457031 874.976562 583.117188 875.070312 583.773438 C 875.164062 584.429688 875.304688 585.078125 875.492188 585.710938 C 875.710938 586.328125 875.949219 586.910156 876.210938 587.460938 C 876.480469 588.003906 876.804688 588.515625 877.179688 588.992188 C 877.28125 589.160156 877.402344 589.3125 877.539062 589.445312 C 877.671875 589.570312 877.804688 589.703125 877.929688 589.835938 C 878.0625 589.972656 878.203125 590.109375 878.351562 590.242188 C 878.496094 590.367188 878.648438 590.488281 878.804688 590.601562 C 878.96875 590.707031 879.132812 590.8125 879.289062 590.914062 C 879.453125 591.019531 879.617188 591.128906 879.773438 591.242188 C 880.78125 591.773438 881.945312 592.039062 883.257812 592.039062 C 883.734375 592.039062 884.1875 592.015625 884.617188 591.960938 C 885.042969 591.910156 885.4375 591.828125 885.804688 591.710938 C 886.179688 591.585938 886.527344 591.441406 886.851562 591.273438 C 887.890625 590.773438 888.761719 590.082031 889.460938 589.195312 C 889.699219 588.90625 889.90625 588.59375 890.085938 588.257812 C 890.273438 587.925781 890.445312 587.566406 890.601562 587.179688 C 890.765625 586.796875 890.917969 586.398438 891.054688 585.992188 C 891.429688 584.691406 891.617188 583.289062 891.617188 581.789062 C 891.617188 580.457031 891.414062 579.179688 891.007812 577.960938 C 890.640625 576.734375 890.085938 575.640625 889.335938 574.679688 C 888.617188 573.742188 887.75 572.992188 886.742188 572.429688 C 885.71875 571.898438 884.558594 571.632812 883.257812 571.632812 C 882.933594 571.632812 882.609375 571.648438 882.289062 571.679688 C 881.976562 571.703125 881.667969 571.75 881.367188 571.820312 C 881.074219 571.882812 880.792969 571.960938 880.523438 572.054688 C 880.261719 572.148438 880.011719 572.265625 879.773438 572.398438 C 879.242188 572.640625 878.761719 572.929688 878.335938 573.273438 C 877.90625 573.617188 877.523438 574.019531 877.179688 574.476562 C 876.460938 575.382812 875.898438 576.453125 875.492188 577.679688 C 875.117188 578.960938 874.929688 580.332031 874.929688 581.789062 Z M 874.929688 581.789062 "/><path style=" stroke:none;fill-rule:nonzero;fill:#ffffff;fill-opacity:1;" d="M 910.613281 576.679688 L 910.613281 596.835938 L 905.003906 596.835938 L 905.003906 566.835938 L 911.644531 566.835938 L 911.925781 567.351562 L 922.410156 587.117188 L 922.410156 566.835938 L 928.003906 566.835938 L 928.003906 596.835938 L 921.457031 596.835938 L 921.175781 596.320312 Z M 910.613281 576.679688 "/><path style=" stroke:none;fill-rule:nonzero;fill:#ffffff;fill-opacity:1;" d="M 938.339844 589.523438 C 938.785156 589.890625 939.253906 590.222656 939.746094 590.523438 C 940.246094 590.816406 940.777344 591.082031 941.339844 591.320312 C 942.402344 591.769531 943.667969 591.992188 945.136719 591.992188 C 946.011719 591.992188 946.777344 591.910156 947.433594 591.742188 C 948.089844 591.566406 948.640625 591.316406 949.089844 590.992188 C 949.941406 590.378906 950.371094 589.566406 950.371094 588.554688 C 950.371094 588.472656 950.371094 588.382812 950.371094 588.289062 C 950.371094 588.195312 950.363281 588.113281 950.355469 588.039062 C 950.34375 587.957031 950.328125 587.867188 950.308594 587.773438 C 950.296875 587.679688 950.277344 587.601562 950.246094 587.539062 C 950.222656 587.46875 950.199219 587.394531 950.167969 587.320312 C 950.0625 587 949.839844 586.675781 949.496094 586.351562 C 949.089844 585.976562 948.515625 585.59375 947.777344 585.195312 C 946.941406 584.769531 945.890625 584.300781 944.621094 583.789062 C 943.121094 583.238281 941.863281 582.664062 940.855469 582.070312 C 939.761719 581.488281 938.863281 580.835938 938.167969 580.117188 C 937.925781 579.847656 937.714844 579.582031 937.527344 579.320312 C 937.347656 579.050781 937.175781 578.769531 937.011719 578.476562 C 936.855469 578.1875 936.722656 577.894531 936.621094 577.601562 C 936.316406 576.695312 936.167969 575.679688 936.167969 574.554688 C 936.167969 573.410156 936.40625 572.332031 936.886719 571.320312 C 937.375 570.300781 938.082031 569.421875 939.011719 568.679688 C 939.917969 567.960938 941.027344 567.390625 942.339844 566.960938 C 943.621094 566.554688 945.074219 566.351562 946.699219 566.351562 C 948.425781 566.351562 949.984375 566.53125 951.371094 566.882812 C 952.753906 567.226562 954.113281 567.71875 955.449219 568.351562 L 956.292969 568.789062 L 955.933594 569.679688 L 954.527344 572.914062 L 954.089844 573.960938 L 953.089844 573.398438 C 952.828125 573.210938 952.542969 573.050781 952.230469 572.914062 C 951.925781 572.78125 951.597656 572.648438 951.246094 572.523438 C 950.902344 572.390625 950.53125 572.253906 950.136719 572.117188 C 949.011719 571.796875 947.839844 571.632812 946.621094 571.632812 C 945.816406 571.632812 945.113281 571.707031 944.511719 571.851562 C 943.917969 572 943.417969 572.207031 943.011719 572.476562 C 942.75 572.664062 942.535156 572.851562 942.371094 573.039062 C 942.214844 573.226562 942.097656 573.429688 942.027344 573.648438 C 941.964844 573.859375 941.933594 574.09375 941.933594 574.351562 C 941.933594 574.78125 941.984375 575.140625 942.089844 575.429688 C 942.171875 575.703125 942.375 575.972656 942.699219 576.242188 C 942.886719 576.398438 943.109375 576.566406 943.371094 576.742188 C 943.640625 576.910156 943.964844 577.085938 944.339844 577.273438 C 944.527344 577.359375 944.722656 577.453125 944.933594 577.554688 C 945.152344 577.660156 945.386719 577.769531 945.636719 577.882812 C 945.886719 577.988281 946.15625 578.09375 946.449219 578.195312 C 946.738281 578.300781 947.046875 578.421875 947.371094 578.554688 C 948.972656 579.140625 950.324219 579.753906 951.417969 580.398438 C 951.65625 580.535156 951.878906 580.671875 952.089844 580.804688 C 952.308594 580.929688 952.511719 581.066406 952.699219 581.210938 C 952.886719 581.359375 953.066406 581.507812 953.246094 581.664062 C 953.433594 581.8125 953.605469 581.957031 953.761719 582.101562 C 953.925781 582.25 954.078125 582.398438 954.214844 582.554688 C 954.964844 583.359375 955.496094 584.222656 955.808594 585.148438 C 956.128906 586.066406 956.292969 587.054688 956.292969 588.117188 C 956.292969 589.585938 956 590.894531 955.417969 592.039062 C 954.855469 593.1875 954.066406 594.160156 953.058594 594.960938 C 952.066406 595.753906 950.878906 596.351562 949.496094 596.757812 C 948.160156 597.132812 946.707031 597.320312 945.136719 597.320312 C 943.082031 597.320312 941.203125 597.039062 939.496094 596.476562 C 937.785156 595.914062 936.34375 595.179688 935.167969 594.273438 L 934.449219 593.710938 L 934.933594 592.960938 L 936.855469 589.757812 L 937.449219 588.757812 Z M 938.339844 589.523438 "/><path style=" stroke:none;fill-rule:nonzero;fill:#ffffff;fill-opacity:1;" d="M 961.570312 566.835938 L 983.570312 566.835938 L 983.570312 572.195312 L 974.960938 572.195312 L 974.960938 596.835938 L 969.164062 596.835938 L 969.164062 572.195312 L 960.570312 572.195312 L 960.570312 566.835938 Z M 961.570312 566.835938 "/><path style=" stroke:none;fill-rule:nonzero;fill:#ffffff;fill-opacity:1;" d="M 1005.882812 596.710938 L 1002.398438 589.117188 C 1001.625 587.410156 1000.652344 586.210938 999.476562 585.523438 C 999.132812 585.304688 998.746094 585.125 998.320312 584.976562 C 997.890625 584.832031 997.421875 584.722656 996.914062 584.648438 C 996.414062 584.566406 995.871094 584.507812 995.289062 584.476562 L 995.289062 596.835938 L 989.476562 596.835938 L 989.476562 566.992188 L 990.398438 566.914062 C 991.117188 566.863281 991.8125 566.8125 992.492188 566.757812 C 993.179688 566.707031 993.839844 566.664062 994.476562 566.632812 C 995.757812 566.5625 997.15625 566.523438 998.679688 566.523438 C 1000.46875 566.523438 1002.058594 566.707031 1003.445312 567.070312 C 1004.859375 567.476562 1006.03125 568.050781 1006.960938 568.789062 C 1007.949219 569.570312 1008.695312 570.484375 1009.195312 571.523438 C 1009.703125 572.554688 1009.960938 573.703125 1009.960938 574.960938 C 1009.960938 577.171875 1009.28125 578.96875 1007.929688 580.351562 C 1007.074219 581.238281 1005.964844 581.972656 1004.601562 582.554688 C 1004.820312 582.710938 1005.011719 582.875 1005.179688 583.039062 C 1005.355469 583.195312 1005.523438 583.382812 1005.679688 583.601562 C 1005.917969 583.84375 1006.140625 584.101562 1006.351562 584.382812 C 1006.570312 584.65625 1006.789062 584.96875 1007.007812 585.320312 C 1007.402344 585.957031 1007.8125 586.742188 1008.242188 587.679688 L 1011.289062 594.195312 L 1011.679688 595.117188 L 1010.804688 595.554688 L 1007.242188 597.242188 L 1006.320312 597.632812 Z M 998.679688 571.710938 C 998.230469 571.710938 997.804688 571.710938 997.398438 571.710938 C 997 571.710938 996.632812 571.726562 996.289062 571.757812 C 996.171875 571.757812 996.046875 571.765625 995.914062 571.773438 C 995.789062 571.785156 995.667969 571.789062 995.554688 571.789062 C 995.449219 571.789062 995.359375 571.789062 995.289062 571.789062 L 995.289062 579.273438 L 998.679688 579.273438 C 1000.386719 579.273438 1001.761719 578.914062 1002.804688 578.195312 C 1003.710938 577.53125 1004.164062 576.570312 1004.164062 575.320312 C 1004.164062 574.8125 1004.0625 574.351562 1003.867188 573.945312 C 1003.667969 573.53125 1003.339844 573.148438 1002.882812 572.804688 C 1002.421875 572.453125 1001.84375 572.179688 1001.148438 571.992188 C 1000.460938 571.804688 999.636719 571.710938 998.679688 571.710938 Z M 998.679688 571.710938 "/><path style=" stroke:none;fill-rule:nonzero;fill:#ffffff;fill-opacity:1;" d="M 1035.605469 566.835938 L 1040.277344 566.835938 L 1040.277344 585.039062 C 1040.277344 586.90625 1040.011719 588.597656 1039.480469 590.117188 C 1038.949219 591.640625 1038.175781 592.945312 1037.167969 594.039062 C 1036.949219 594.25 1036.722656 594.445312 1036.496094 594.632812 C 1036.277344 594.820312 1036.050781 595.007812 1035.824219 595.195312 C 1035.59375 595.382812 1035.347656 595.550781 1035.089844 595.695312 C 1034.839844 595.839844 1034.578125 595.980469 1034.308594 596.117188 C 1034.046875 596.25 1033.769531 596.371094 1033.480469 596.476562 C 1032.09375 597.039062 1030.546875 597.320312 1028.839844 597.320312 C 1025.296875 597.320312 1022.511719 596.261719 1020.480469 594.148438 C 1018.480469 592.046875 1017.480469 589.0625 1017.480469 585.195312 L 1017.480469 566.835938 L 1023.277344 566.835938 L 1023.277344 584.601562 C 1023.277344 587.082031 1023.753906 588.960938 1024.714844 590.242188 C 1025.140625 590.828125 1025.6875 591.265625 1026.355469 591.554688 C 1027.019531 591.847656 1027.847656 591.992188 1028.839844 591.992188 C 1030.785156 591.992188 1032.214844 591.410156 1033.121094 590.242188 C 1034.109375 588.984375 1034.605469 587.101562 1034.605469 584.601562 L 1034.605469 566.835938 Z M 1035.605469 566.835938 "/><path style=" stroke:none;fill-rule:nonzero;fill:#ffffff;fill-opacity:1;" d="M 1046.605469 566.835938 L 1068.605469 566.835938 L 1068.605469 572.195312 L 1059.996094 572.195312 L 1059.996094 596.835938 L 1054.199219 596.835938 L 1054.199219 572.195312 L 1045.605469 572.195312 L 1045.605469 566.835938 Z M 1046.605469 566.835938 "/><path style=" stroke:none;fill-rule:nonzero;fill:#ffffff;fill-opacity:1;" d="M 1072.914062 581.789062 C 1072.914062 579.632812 1073.230469 577.625 1073.867188 575.757812 C 1074.511719 573.863281 1075.449219 572.222656 1076.679688 570.835938 C 1077.898438 569.421875 1079.386719 568.328125 1081.148438 567.554688 C 1082.03125 567.160156 1082.976562 566.863281 1083.976562 566.664062 C 1084.976562 566.457031 1086.023438 566.351562 1087.117188 566.351562 C 1088.210938 566.351562 1089.257812 566.457031 1090.257812 566.664062 C 1091.257812 566.863281 1092.195312 567.175781 1093.070312 567.601562 C 1093.953125 568 1094.765625 568.476562 1095.507812 569.039062 C 1096.257812 569.601562 1096.9375 570.242188 1097.554688 570.960938 C 1098.78125 572.347656 1099.730469 573.972656 1100.398438 575.835938 C 1101.03125 577.703125 1101.351562 579.691406 1101.351562 581.804688 C 1101.351562 583.910156 1101.03125 585.894531 1100.398438 587.757812 C 1100.179688 588.375 1099.929688 588.972656 1099.648438 589.554688 C 1099.367188 590.140625 1099.054688 590.691406 1098.710938 591.210938 C 1098.367188 591.734375 1097.996094 592.234375 1097.601562 592.710938 C 1096.984375 593.429688 1096.296875 594.070312 1095.539062 594.632812 C 1094.777344 595.195312 1093.96875 595.675781 1093.117188 596.070312 C 1091.355469 596.902344 1089.355469 597.320312 1087.117188 597.320312 C 1084.875 597.320312 1082.875 596.902344 1081.117188 596.070312 C 1080.6875 595.859375 1080.273438 595.640625 1079.867188 595.398438 C 1079.46875 595.160156 1079.085938 594.898438 1078.710938 594.617188 C 1078.335938 594.335938 1077.976562 594.039062 1077.632812 593.726562 C 1077.289062 593.40625 1076.96875 593.066406 1076.679688 592.710938 C 1075.449219 591.304688 1074.511719 589.65625 1073.867188 587.757812 C 1073.230469 585.894531 1072.914062 583.90625 1072.914062 581.789062 Z M 1078.789062 581.789062 C 1078.789062 582.457031 1078.835938 583.117188 1078.929688 583.773438 C 1079.023438 584.429688 1079.164062 585.078125 1079.351562 585.710938 C 1079.570312 586.328125 1079.808594 586.910156 1080.070312 587.460938 C 1080.339844 588.003906 1080.664062 588.515625 1081.039062 588.992188 C 1081.140625 589.160156 1081.261719 589.3125 1081.398438 589.445312 C 1081.53125 589.570312 1081.664062 589.703125 1081.789062 589.835938 C 1081.921875 589.972656 1082.0625 590.109375 1082.210938 590.242188 C 1082.355469 590.367188 1082.507812 590.488281 1082.664062 590.601562 C 1082.828125 590.707031 1082.992188 590.8125 1083.148438 590.914062 C 1083.3125 591.019531 1083.476562 591.128906 1083.632812 591.242188 C 1084.640625 591.773438 1085.804688 592.039062 1087.117188 592.039062 C 1087.59375 592.039062 1088.046875 592.015625 1088.476562 591.960938 C 1088.902344 591.910156 1089.296875 591.828125 1089.664062 591.710938 C 1090.039062 591.585938 1090.386719 591.441406 1090.710938 591.273438 C 1091.75 590.773438 1092.621094 590.082031 1093.320312 589.195312 C 1093.558594 588.90625 1093.765625 588.59375 1093.945312 588.257812 C 1094.132812 587.925781 1094.304688 587.566406 1094.460938 587.179688 C 1094.625 586.796875 1094.777344 586.398438 1094.914062 585.992188 C 1095.289062 584.691406 1095.476562 583.289062 1095.476562 581.789062 C 1095.476562 580.457031 1095.273438 579.179688 1094.867188 577.960938 C 1094.5 576.734375 1093.945312 575.640625 1093.195312 574.679688 C 1092.476562 573.742188 1091.609375 572.992188 1090.601562 572.429688 C 1089.578125 571.898438 1088.417969 571.632812 1087.117188 571.632812 C 1086.792969 571.632812 1086.46875 571.648438 1086.148438 571.679688 C 1085.835938 571.703125 1085.527344 571.75 1085.226562 571.820312 C 1084.933594 571.882812 1084.652344 571.960938 1084.382812 572.054688 C 1084.121094 572.148438 1083.871094 572.265625 1083.632812 572.398438 C 1083.101562 572.640625 1082.621094 572.929688 1082.195312 573.273438 C 1081.765625 573.617188 1081.382812 574.019531 1081.039062 574.476562 C 1080.320312 575.382812 1079.757812 576.453125 1079.351562 577.679688 C 1078.976562 578.960938 1078.789062 580.332031 1078.789062 581.789062 Z M 1078.789062 581.789062 "/><path style=" stroke:none;fill-rule:nonzero;fill:#ffffff;fill-opacity:1;" d="M 1125.273438 596.710938 L 1121.789062 589.117188 C 1121.015625 587.410156 1120.042969 586.210938 1118.867188 585.523438 C 1118.523438 585.304688 1118.136719 585.125 1117.710938 584.976562 C 1117.28125 584.832031 1116.8125 584.722656 1116.304688 584.648438 C 1115.804688 584.566406 1115.261719 584.507812 1114.679688 584.476562 L 1114.679688 596.835938 L 1108.867188 596.835938 L 1108.867188 566.992188 L 1109.789062 566.914062 C 1110.507812 566.863281 1111.203125 566.8125 1111.882812 566.757812 C 1112.570312 566.707031 1113.230469 566.664062 1113.867188 566.632812 C 1115.148438 566.5625 1116.546875 566.523438 1118.070312 566.523438 C 1119.859375 566.523438 1121.449219 566.707031 1122.835938 567.070312 C 1124.25 567.476562 1125.421875 568.050781 1126.351562 568.789062 C 1127.339844 569.570312 1128.085938 570.484375 1128.585938 571.523438 C 1129.09375 572.554688 1129.351562 573.703125 1129.351562 574.960938 C 1129.351562 577.171875 1128.671875 578.96875 1127.320312 580.351562 C 1126.464844 581.238281 1125.355469 581.972656 1123.992188 582.554688 C 1124.210938 582.710938 1124.402344 582.875 1124.570312 583.039062 C 1124.746094 583.195312 1124.914062 583.382812 1125.070312 583.601562 C 1125.308594 583.84375 1125.53125 584.101562 1125.742188 584.382812 C 1125.960938 584.65625 1126.179688 584.96875 1126.398438 585.320312 C 1126.792969 585.957031 1127.203125 586.742188 1127.632812 587.679688 L 1130.679688 594.195312 L 1131.070312 595.117188 L 1130.195312 595.554688 L 1126.632812 597.242188 L 1125.710938 597.632812 Z M 1118.070312 571.710938 C 1117.621094 571.710938 1117.195312 571.710938 1116.789062 571.710938 C 1116.390625 571.710938 1116.023438 571.726562 1115.679688 571.757812 C 1115.5625 571.757812 1115.4375 571.765625 1115.304688 571.773438 C 1115.179688 571.785156 1115.058594 571.789062 1114.945312 571.789062 C 1114.839844 571.789062 1114.75 571.789062 1114.679688 571.789062 L 1114.679688 579.273438 L 1118.070312 579.273438 C 1119.777344 579.273438 1121.152344 578.914062 1122.195312 578.195312 C 1123.101562 577.53125 1123.554688 576.570312 1123.554688 575.320312 C 1123.554688 574.8125 1123.453125 574.351562 1123.257812 573.945312 C 1123.058594 573.53125 1122.730469 573.148438 1122.273438 572.804688 C 1121.8125 572.453125 1121.234375 572.179688 1120.539062 571.992188 C 1119.851562 571.804688 1119.027344 571.710938 1118.070312 571.710938 Z M 1118.070312 571.710938 "/><path style=" stroke:none;fill-rule:nonzero;fill:#ffffff;fill-opacity:1;" d="M 1134.402344 594.476562 L 1145.355469 567.476562 L 1145.605469 566.835938 L 1151.121094 566.835938 L 1151.355469 567.476562 L 1162.152344 594.476562 L 1162.511719 595.398438 L 1161.605469 595.757812 L 1158.121094 597.148438 L 1157.199219 597.554688 L 1156.839844 596.601562 L 1153.964844 589.242188 L 1142.355469 589.242188 L 1139.480469 596.523438 L 1139.121094 597.476562 L 1138.199219 597.070312 L 1134.964844 595.757812 L 1133.996094 595.398438 Z M 1144.355469 584.039062 L 1151.917969 584.039062 L 1148.152344 574.351562 Z M 1144.355469 584.039062 "/></g></svg>